<?xml version="1.0" encoding="UTF-8" standalone="no"?><!DOCTYPE svg PUBLIC "-//W3C//DTD SVG 1.1//EN" "http://www.w3.org/Graphics/SVG/1.1/DTD/svg11.dtd"><svg width="100%" height="100%" viewBox="0 0 4167 4167" version="1.1" xmlns="http://www.w3.org/2000/svg" xmlns:xlink="http://www.w3.org/1999/xlink" xml:space="preserve" xmlns:serif="http://www.serif.com/" style="fill-rule:evenodd;clip-rule:evenodd;stroke-linejoin:round;stroke-miterlimit:2;"><rect id="ArtBoard1" x="0" y="0" width="4166.67" height="4166.67" style="fill:none;"/><clipPath id="_clip1"><rect x="0" y="0" width="4166.67" height="4166.67"/></clipPath><g clip-path="url(#_clip1)"><circle cx="2083.33" cy="2083.33" r="2083.33" style="fill:#fff;"/><path d="M744.681,2875.73l-153.98,-33.973l1.589,-122.867l-32.703,-30.479l4.445,-194.618l25.399,-41.275l23.495,-132.376l4.176,-837.049l63.599,-71.458l96.241,3.636l72.669,38.754l173.187,351.221l381.501,726.671l525.624,-1090.76l58.135,-15.335l72.666,59.692l22.609,144.123l0,1114.23l-16.083,19.37l0.312,45.151l2.602,34.85c-0,0 16.021,6.346 18.205,6.553c2.184,0.21 715.369,0.413 715.369,0.413l26.583,-7.415l12.614,-30.69l14.044,-41.221l28.085,-101.668l164.879,-574.929l1.059,-37.572l27.334,-16.402l31.93,10.583l11.642,32.445l-16.856,27.599l-8.544,0.841l-202.661,707.674l-11.112,32.566l-23.285,25.925l-30.16,17.241l-28.574,3.925l-707.725,0.762l-33.073,-5.29l-28.44,-22.49l-12.567,-26.455l-0.664,-29.764l-35.054,-1299.05l-55.56,82.679l-492.104,1053l-54.239,7.274l-45.637,-72.756l-219.593,-408.101l-217.612,-404.796l-151.466,-260.605l-9.263,123.027l-19.181,410.749c-0,0 -9.259,310.21 -8.598,316.824c0.663,6.614 -6.614,62.174 -6.614,62.174l11.247,31.088l19.181,17.857l33.73,46.961l11.907,39.687l-0,43.656c-0,5.95 -0.661,136.254 -0.661,136.254l-19.845,6.614l-11.243,1.985l-2.961,125.348Z" style="fill:#fff;"/><path d="M2846.15,2780.7c-24.815,-8.243 -49.217,-17.817 -73.093,-28.694l-41.45,71.798c-42.797,-19.997 -83.779,-43.659 -122.493,-70.721l41.45,-71.798c-66.342,-47.339 -124.365,-105.361 -171.703,-171.703l-71.799,41.453c-27.061,-38.718 -50.723,-79.7 -70.721,-122.492l71.799,-41.454c-33.785,-74.168 -55.023,-153.429 -62.849,-234.555l-82.907,-0c-4.078,-47.059 -4.078,-94.383 -0,-141.442l82.907,-0c7.826,-81.123 29.064,-160.384 62.849,-234.552l-71.799,-41.453c19.998,-42.796 43.66,-83.779 70.721,-122.493l71.799,41.454c47.338,-66.342 105.361,-124.369 171.703,-171.707l-41.45,-71.799c38.714,-27.061 79.696,-50.723 122.493,-70.721l41.45,71.799c74.171,-33.784 153.432,-55.023 234.555,-62.848l-0,-82.908c47.059,-4.078 94.383,-4.078 141.442,0l-0,82.908c81.122,7.825 160.383,29.064 234.555,62.848l41.45,-71.799c42.796,19.998 83.778,43.66 122.493,70.721l-41.451,71.799c66.342,47.338 124.365,105.365 171.704,171.707l71.798,-41.454c27.062,38.714 50.724,79.697 70.721,122.493l-71.798,41.453c33.784,74.168 55.022,153.429 62.848,234.552l82.907,-0c4.078,47.059 4.078,94.383 0,141.442l-82.907,-0c-7.826,81.126 -29.064,160.387 -62.848,234.555l71.798,41.454c-19.997,42.792 -43.659,83.774 -70.721,122.492l-71.798,-41.453c-47.339,66.342 -105.362,124.364 -171.704,171.703l41.451,71.798c-38.715,27.062 -79.697,50.724 -122.493,70.721l-41.45,-71.798c-74.172,33.784 -153.433,55.022 -234.555,62.848l-0,82.908c-47.059,4.077 -94.383,4.077 -141.442,-0l-0,-82.908c-34.227,-3.301 -68.12,-8.99 -101.447,-17.001c0,0 -5.126,17.864 -11.163,38.907c-11.356,39.574 -47.542,66.846 -88.709,66.864c-162.009,0.066 -563.021,0.229 -723.848,0.229c-37.76,-0 -68.403,-30.544 -68.526,-68.305c-0.112,-34.597 -0.225,-69.371 -0.225,-69.371l-198.032,-0c124.235,-0 132.133,-148.872 132.133,-148.872c-0,-0 0.334,-1020.87 -0,-1020.87c-0.338,0 -559.172,1169.47 -559.172,1169.47l-592.768,-1136.85l0,758.63l-66.342,0l0,73.192c40.485,36.49 55.469,80.44 55.469,105.575l0,181.695c0,1.847 -0.736,3.621 -2.039,4.927c-1.306,1.302 -3.08,2.039 -4.927,2.039l-26.39,-0l0,131.954l-167.839,-38.148l-0,-124.006c-0,0 -17.273,-17.269 -26.129,-26.129c-3.273,-3.272 -5.112,-7.709 -5.112,-12.339l-0,-199.635c-0,-13.319 12.433,-25.868 27.761,-36.28l0,-888.078c-48.633,-76.787 -215.003,-67.829 -215.003,-67.829l-0,-97.264l232.919,0c-34.554,-95.983 -139.494,-98.54 -139.494,-98.54l-189.408,-0l-0,-36.019l527.267,-0l0,135.84l147.174,-0l511.91,923.998l476.076,-921.437l183.008,0l0,1364.97l-43.474,-0l-0,67.717c-0,3.28 1.302,6.425 3.624,8.747c2.318,2.322 5.467,3.624 8.747,3.624l719.618,0c14.247,0 26.775,-9.436 30.704,-23.132l12.175,-42.433Zm-2211.26,-333.56l0,-879.577c0.331,-179.358 160.261,-159.346 191.937,-98.102c446.37,863.052 541.101,1061.58 566.091,1103.3c6.679,11.152 13.148,14.04 20.041,0.736c5.794,-11.188 509.856,-1087.51 509.856,-1087.51l-0.047,-0.087c36.6,-76.99 138.775,-18.742 138.775,109.083l0,1236.87c0,14.751 7.405,23.444 26.22,23.444l670.092,0c80.944,0 80.756,-0.025 98.384,-61.575l14.222,-50.092c0.025,-0.326 0.047,-0.645 0.069,-0.968l0.152,0.192l185.305,-652.583c-1.556,-3.33 -2.431,-7.053 -2.431,-10.974c0,-14.273 11.537,-25.861 25.748,-25.861c14.211,0 25.748,11.588 25.748,25.861c0,8.587 -4.175,16.202 -10.597,20.904l-204.776,721.149c-8.907,42.154 -46.21,73.823 -90.824,73.823l-711.567,-0c-40.355,-0.222 -65.457,-28.607 -65.457,-63.32l0,-1237.98c0,-105.303 -51.779,-115.236 -63.36,-90.892c-503.939,1059.41 -511.489,1075.77 -511.521,1075.84c-9.458,23.321 -56.917,61.031 -88.353,2.192c-0,-0 -558.516,-1075.59 -566.987,-1092.5c-16.214,-32.351 -117.011,-54.884 -117.011,79.57l0,675.86l0.12,-0l1.977,202.052c66.469,32.376 94.477,85.614 94.477,115.055c0,24.972 0.922,176.935 -0.519,176.935c-4.208,-0 -20.534,-1.491 -25.116,-2.086c-3.955,-0.512 -4.666,1.545 -4.579,1.661c0.004,0.004 -1.759,2.148 -1.759,2.148l-141.076,-29.869c0,-0 -0.943,-1.858 -2.634,-3.614c-4.909,-5.104 -15.415,-12.767 -20.379,-17.926c-1.734,-1.799 -2.702,-4.201 -2.702,-6.701l-0,-180.875c-0,-36.298 44.838,-49.714 62.481,-53.589Zm104.114,308.991l-140.88,-29.935l0,105.209l141.467,32.449l-0.587,-107.723Zm-17.233,47.687l-40.859,-9.259l-0.211,40.434l40.808,9.331l0.262,-40.506Zm-9.136,5.122l-22.588,-5.246l-0.21,25.044l22.584,5.069l0.214,-24.867Zm-54.464,-19.616l-40.858,-9.255l-0.211,40.434l40.808,9.331l0.261,-40.51Zm-9.135,5.126l-22.588,-5.246l-0.21,25.041l22.584,5.068l0.214,-24.863Zm2276.77,-291.323c-172.265,-62.463 -295.462,-227.614 -295.462,-421.314c0,-247.253 200.739,-447.992 447.992,-447.992c247.253,0 447.991,200.739 447.991,447.992c0,247.253 -200.738,447.995 -447.991,447.995c-31.546,-0 -62.333,-3.269 -92.069,-9.491l-53.009,185.628c46.606,10.811 95.178,16.525 145.078,16.525c353.59,0 640.657,-287.067 640.657,-640.657c-0,-353.587 -287.067,-640.658 -640.657,-640.658c-353.591,0 -640.658,287.071 -640.658,640.658c0,281.636 182.12,521.067 434.891,606.844l-26.416,92.043l79.653,-277.573Zm-397.634,-420.755c0.098,96.381 25.516,191.051 73.71,274.524c48.191,83.47 117.468,152.816 200.891,201.094l38.773,-67.002c-71.683,-41.483 -131.211,-101.073 -172.625,-172.799c-41.41,-71.726 -63.251,-153.073 -63.334,-235.897l-77.415,0.08Zm825.726,475.618c83.423,-48.278 152.7,-117.624 200.891,-201.094c48.194,-83.473 73.612,-178.143 73.71,-274.524l-77.414,-0.08c-0.084,82.824 -21.924,164.171 -63.335,235.897c-41.414,71.726 -100.942,131.316 -172.624,172.799l38.772,67.002Zm-428.092,-54.863l71.509,-249.183c-64.514,-30.443 -109.204,-96.11 -109.204,-172.131c0,-104.988 85.237,-190.224 190.225,-190.224c104.987,-0 190.224,85.236 190.224,190.224c-0,104.987 -85.237,190.224 -190.224,190.224c-7.042,0 -13.994,-0.381 -20.847,-1.132l-47.364,165.87c22.077,4.223 44.886,6.439 68.211,6.439c199.461,0 361.401,-161.94 361.401,-361.401c0,-199.461 -161.94,-361.398 -361.401,-361.398c-199.462,-0 -361.402,161.937 -361.402,361.398c0,154.183 96.763,285.946 232.832,337.826l-23.96,83.488Zm150.962,-542.773c-66.316,0.842 -119.898,54.943 -119.898,121.459c-0,43.848 23.281,82.298 58.139,103.652l1.668,1.005l18.271,-63.675c-10.108,-10.692 -16.308,-25.12 -16.308,-40.982c0,-32.946 26.75,-59.696 59.696,-59.696c32.946,0 59.695,26.75 59.695,59.696c0,27.079 -18.067,49.969 -42.796,57.268l-18.43,64.191c0.508,0.007 1.019,0.011 1.531,0.011c67.038,-0 121.469,-54.428 121.469,-121.47c0,-67.039 -54.431,-121.466 -121.469,-121.466l-1.568,0.007Zm276.165,-355.274c-83.517,-48.107 -178.212,-73.427 -274.597,-73.427c-96.386,-0 -191.077,25.32 -274.598,73.427l38.639,67.082c71.765,-41.341 153.135,-63.098 235.959,-63.098c82.824,-0 164.193,21.757 235.959,63.098l38.638,-67.082Z"/></g></svg>
