<svg clip-rule="evenodd" fill-rule="evenodd" stroke-linejoin="round" stroke-miterlimit="2"
     viewBox="0 0 4167 4167" xmlns="http://www.w3.org/2000/svg">
  <defs/>
  <path d="M0 0h4166.67v4166.67H0z" fill="none"/>
  <clipPath id="a">
    <path d="M0 0h4166.67v4166.67H0z"/>
  </clipPath>
  <g clip-path="url(#a)">
    <circle cx="2083.33" cy="2083.33" fill="#fff" r="2083.33"/>
    <path
      d="M744.681 2875.73l-153.98-33.973 1.589-122.867-32.703-30.479 4.445-194.618 25.399-41.275 23.495-132.376 4.176-837.049 63.599-71.458 96.241 3.636 72.669 38.754 173.187 351.221 381.501 726.671 525.624-1090.76 58.135-15.335 72.666 59.692 22.609 144.123v1114.23l-16.083 19.37.312 45.151 2.602 34.85s16.021 6.346 18.205 6.553c2.184.21 715.369.413 715.369.413l26.583-7.415 12.614-30.69 14.044-41.221 28.085-101.668 164.879-574.929 1.059-37.572 27.334-16.402 31.93 10.583 11.642 32.445-16.856 27.599-8.544.841-202.661 707.674-11.112 32.566-23.285 25.925-30.16 17.241-28.574 3.925-707.725.762-33.073-5.29-28.44-22.49-12.567-26.455-.664-29.764-35.054-1299.05-55.56 82.679-492.104 1053-54.239 7.274-45.637-72.756-219.593-408.101-217.612-404.796-151.466-260.605-9.263 123.027-19.181 410.749s-9.259 310.21-8.598 316.824c.663 6.614-6.614 62.174-6.614 62.174l11.247 31.088 19.181 17.857 33.73 46.961 11.907 39.687v43.656c0 5.95-.661 136.254-.661 136.254l-19.845 6.614-11.243 1.985-2.961 125.348z"
      fill="#fff"/>
    <path
      d="M2846.15 2780.7a735.884 735.884 0 01-73.093-28.694l-41.45 71.798a818.771 818.771 0 01-122.493-70.721l41.45-71.798a736.373 736.373 0 01-171.703-171.703l-71.799 41.453a819.385 819.385 0 01-70.721-122.492l71.799-41.454a736.392 736.392 0 01-62.849-234.555h-82.907a819.162 819.162 0 010-141.442h82.907a736.395 736.395 0 0162.849-234.552l-71.799-41.453a818.995 818.995 0 0170.721-122.493l71.799 41.454a736.371 736.371 0 01171.703-171.707l-41.45-71.799a818.945 818.945 0 01122.493-70.721l41.45 71.799a736.432 736.432 0 01234.555-62.848v-82.908a819.162 819.162 0 01141.442 0v82.908a736.446 736.446 0 01234.555 62.848l41.45-71.799a819.045 819.045 0 01122.493 70.721l-41.451 71.799a736.395 736.395 0 01171.704 171.707l71.798-41.454a818.821 818.821 0 0170.721 122.493l-71.798 41.453a736.42 736.42 0 0162.848 234.552h82.907a819.162 819.162 0 010 141.442h-82.907a736.416 736.416 0 01-62.848 234.555l71.798 41.454a819.211 819.211 0 01-70.721 122.492l-71.798-41.453a736.397 736.397 0 01-171.704 171.703l41.451 71.798a818.871 818.871 0 01-122.493 70.721l-41.45-71.798a736.472 736.472 0 01-234.555 62.848v82.908a819.362 819.362 0 01-141.442 0v-82.908a736.58 736.58 0 01-101.447-17.001l-11.163 38.907c-11.356 39.574-47.542 66.846-88.709 66.864-162.009.066-563.021.229-723.848.229-37.76 0-68.403-30.544-68.526-68.305l-.225-69.371h-198.032c124.235 0 132.133-148.872 132.133-148.872s.334-1020.87 0-1020.87c-.338 0-559.172 1169.47-559.172 1169.47l-592.768-1136.85v758.63h-66.342v73.192c40.485 36.49 55.469 80.44 55.469 105.575v181.695a6.982 6.982 0 01-2.039 4.927 6.986 6.986 0 01-4.927 2.039h-26.39v131.954l-167.839-38.148v-124.006s-17.273-17.269-26.129-26.129a17.445 17.445 0 01-5.112-12.339V2486.81c0-13.319 12.433-25.868 27.761-36.28v-888.078c-48.633-76.787-215.003-67.829-215.003-67.829v-97.264h232.919c-34.554-95.983-139.494-98.54-139.494-98.54H269.321V1262.8h527.267v135.84h147.174l511.91 923.998 476.076-921.437h183.008v1364.97h-43.474v67.717c0 3.28 1.302 6.425 3.624 8.747a12.36 12.36 0 008.747 3.624h719.618c14.247 0 26.775-9.436 30.704-23.132l12.175-42.433zM634.89 2447.14v-879.577c.331-179.358 160.261-159.346 191.937-98.102 446.37 863.052 541.101 1061.58 566.091 1103.3 6.679 11.152 13.148 14.04 20.041.736 5.794-11.188 509.856-1087.51 509.856-1087.51l-.047-.087c36.6-76.99 138.775-18.742 138.775 109.083v1236.87c0 14.751 7.405 23.444 26.22 23.444h670.092c80.944 0 80.756-.025 98.384-61.575l14.222-50.092c.025-.326.047-.645.069-.968l.152.192 185.305-652.583a25.872 25.872 0 01-2.431-10.974c0-14.273 11.537-25.861 25.748-25.861s25.748 11.588 25.748 25.861c0 8.587-4.175 16.202-10.597 20.904l-204.776 721.149c-8.907 42.154-46.21 73.823-90.824 73.823h-711.567c-40.355-.222-65.457-28.607-65.457-63.32v-1237.98c0-105.303-51.779-115.236-63.36-90.892-503.939 1059.41-511.489 1075.77-511.521 1075.84-9.458 23.321-56.917 61.031-88.353 2.192 0 0-558.516-1075.59-566.987-1092.5-16.214-32.351-117.011-54.884-117.011 79.57v675.86h.12l1.977 202.052c66.469 32.376 94.477 85.614 94.477 115.055 0 24.972.922 176.935-.519 176.935-4.208 0-20.534-1.491-25.116-2.086-3.955-.512-4.666 1.545-4.579 1.661.004.004-1.759 2.148-1.759 2.148l-141.076-29.869s-.943-1.858-2.634-3.614c-4.909-5.104-15.415-12.767-20.379-17.926a9.655 9.655 0 01-2.702-6.701v-180.875c0-36.298 44.838-49.714 62.481-53.589zm104.114 308.991l-140.88-29.935v105.209l141.467 32.449-.587-107.723zm-17.233 47.687l-40.859-9.259-.211 40.434 40.808 9.331.262-40.506zm-9.136 5.122l-22.588-5.246-.21 25.044 22.584 5.069.214-24.867zm-54.464-19.616l-40.858-9.255-.211 40.434 40.808 9.331.261-40.51zm-9.135 5.126l-22.588-5.246-.21 25.041 22.584 5.068.214-24.863zm2276.77-291.323c-172.265-62.463-295.462-227.614-295.462-421.314 0-247.253 200.739-447.992 447.992-447.992 247.253 0 447.991 200.739 447.991 447.992 0 247.253-200.738 447.995-447.991 447.995-31.546 0-62.333-3.269-92.069-9.491l-53.009 185.628c46.606 10.811 95.178 16.525 145.078 16.525 353.59 0 640.657-287.067 640.657-640.657 0-353.587-287.067-640.658-640.657-640.658-353.591 0-640.658 287.071-640.658 640.658 0 281.636 182.12 521.067 434.891 606.844l-26.416 92.043 79.653-277.573zm-397.634-420.755a550.166 550.166 0 00274.601 475.618l38.773-67.002a472.781 472.781 0 01-172.625-172.799 472.75 472.75 0 01-63.334-235.897l-77.415.08zm825.726 475.618a550.17 550.17 0 00274.601-475.618l-77.414-.08a472.75 472.75 0 01-235.959 408.696l38.772 67.002zm-428.092-54.863l71.509-249.183c-64.514-30.443-109.204-96.11-109.204-172.131 0-104.988 85.237-190.224 190.225-190.224 104.987 0 190.224 85.236 190.224 190.224 0 104.987-85.237 190.224-190.224 190.224-7.042 0-13.994-.381-20.847-1.132l-47.364 165.87c22.077 4.223 44.886 6.439 68.211 6.439 199.461 0 361.401-161.94 361.401-361.401s-161.94-361.398-361.401-361.398c-199.462 0-361.402 161.937-361.402 361.398 0 154.183 96.763 285.946 232.832 337.826l-23.96 83.488zm150.962-542.773c-66.316.842-119.898 54.943-119.898 121.459 0 43.848 23.281 82.298 58.139 103.652l1.668 1.005 18.271-63.675c-10.108-10.692-16.308-25.12-16.308-40.982 0-32.946 26.75-59.696 59.696-59.696s59.695 26.75 59.695 59.696c0 27.079-18.067 49.969-42.796 57.268l-18.43 64.191c.508.007 1.019.011 1.531.011 67.038 0 121.469-54.428 121.469-121.47 0-67.039-54.431-121.466-121.469-121.466l-1.568.007zm276.165-355.274a550.153 550.153 0 00-274.597-73.427 550.165 550.165 0 00-274.598 73.427l38.639 67.082a472.709 472.709 0 01235.959-63.098 472.711 472.711 0 01235.959 63.098l38.638-67.082z"/>
  </g>
</svg>
